<?xml version="1.0" encoding="UTF-8"?>
<svg width="159px" height="180px" viewBox="0 0 159 180" version="1.1" xmlns="http://www.w3.org/2000/svg" xmlns:xlink="http://www.w3.org/1999/xlink">
    <!-- Generator: Sketch 48.2 (47327) - http://www.bohemiancoding.com/sketch -->
    <title>Group 3</title>
    <desc>Created with Sketch.</desc>
    <defs></defs>
    <g id="Page-2" stroke="none" stroke-width="1" fill="none" fill-rule="evenodd">
        <g id="Group-3">
            <text id="Deutschschweizer" font-family="InterUI-Regular, Inter UI" font-size="11" font-weight="normal" fill="#112238">
                <tspan x="64.96875" y="179">Deutschschweizer</tspan>
            </text>
            <text id="Romands" font-family="InterUI-Regular, Inter UI" font-size="11" font-weight="normal" fill="#112238">
                <tspan x="0.69921875" y="179">Romands</tspan>
            </text>
            <g id="Group" transform="translate(84.000000, 0.000000)">
                <path d="M1,40 L55,40 L55,59 C55,73.9116882 42.9116882,86 28,86 L28,86 C13.0883118,86 1,73.9116882 1,59 L1,40 Z" id="Rectangle-7-Copy" fill="#E052A0"></path>
                <rect id="Rectangle-6-Copy" fill="#112238" x="10" y="155" width="39" height="2"></rect>
                <path d="M1,1 L1,59 C1,73.9116882 13.0883118,86 28,86 C42.9116882,86 55,73.9116882 55,59 L55,1 L1,1 Z" id="Rectangle-8-Copy" stroke="#112238" stroke-width="2"></path>
                <rect id="Rectangle-3-Copy" fill="#112238" x="28" y="87" width="2" height="70"></rect>
                <text id="10.8%" font-family="InterUI-Medium, Inter UI" font-size="11" font-weight="400" fill="#112238">
                    <tspan x="13" y="73">10.8%</tspan>
                </text>
            </g>
            <g id="Group-2">
                <path d="M1,16 L55,16 L55,59 C55,73.9116882 42.9116882,86 28,86 L28,86 C13.0883118,86 1,73.9116882 1,59 L1,16 Z" id="Rectangle-7" fill="#E052A0"></path>
                <rect id="Rectangle-6" fill="#112238" x="10" y="155" width="39" height="2"></rect>
                <path d="M1,1 L1,59 C1,73.9116882 13.0883118,86 28,86 C42.9116882,86 55,73.9116882 55,59 L55,1 L1,1 Z" id="Rectangle-8" stroke="#112238" stroke-width="2"></path>
                <rect id="Rectangle-3" fill="#112238" x="28" y="87" width="2" height="70"></rect>
                <text id="17.7%" font-family="InterUI-Medium, Inter UI" font-size="11" font-weight="400" fill="#112238">
                    <tspan x="14" y="71">17.7%</tspan>
                </text>
            </g>
        </g>
    </g>
</svg>