<?xml version="1.0" encoding="UTF-8"?>
<svg width="750px" height="264px" viewBox="0 0 750 264" version="1.1" xmlns="http://www.w3.org/2000/svg" xmlns:xlink="http://www.w3.org/1999/xlink">
    <!-- Generator: Sketch 48.2 (47327) - http://www.bohemiancoding.com/sketch -->
    <title>Artboard</title>
    <desc>Created with Sketch.</desc>
    <defs></defs>
    <g id="Page-1" stroke="none" stroke-width="1" fill="none" fill-rule="evenodd">
        <g id="Artboard" fill-rule="nonzero">
            <g id="Röstigraben-Copy" transform="translate(169.000000, 0.000000)">
                <path d="M331.041427,53.6029608 L331.041427,52.0196116 C331.041427,49.4791998 328.982016,47.4197891 326.441605,47.4197891 L326.441605,47.4197891 C323.901193,47.4197891 321.841782,45.3603784 321.841782,42.8199666 L321.841782,41.2836203 C321.841782,39.0053427 319.994873,37.1584338 317.716596,37.1584338 L317.390341,37.1584338 C315.292249,37.1584338 313.591409,35.4575941 313.591409,33.359502 L313.591409,33.359502 C313.591409,31.2614099 311.890569,29.5605702 309.792477,29.5605702 L305.30878,29.5605702 C302.537282,29.5605702 300.29054,27.3138278 300.29054,24.5423306 L300.29054,24.5423306 C300.29054,21.7708334 298.043798,19.524091 295.2723,19.524091 L267.836492,19.524091 C265.298626,19.524091 263.241278,17.4667434 263.241278,14.9288766 L263.241278,14.9288765 C263.241278,12.3910097 261.18393,10.3336621 258.646064,10.3336621 L249.312783,10.3336621 C246.50362,10.3336621 244.226343,8.05638546 244.226343,5.24722237 L244.226343,5.24722237 C244.226343,2.43805927 241.949066,0.160782638 239.139903,0.160782638 L228.867489,0.160782638 C226.643674,0.160782638 224.840916,1.96354068 224.840916,4.18735542 L224.840916,4.37628821 C224.840916,6.49575826 223.122746,8.21392821 221.003276,8.21392821 L221.003276,8.21392821 C218.883806,8.21392821 217.165636,9.93209816 217.165636,12.0515682 L217.165636,13.4727115 C217.165636,15.5921815 218.883806,17.3103515 221.003276,17.3103515 L221.003276,17.3103515 C223.122746,17.3103515 224.840916,19.0285215 224.840916,21.1479915 L224.840916,22.45854 C224.840916,25.301806 222.535993,27.6067285 219.692728,27.6067285 L171.416249,27.6067285 C168.778618,27.6067285 166.640396,29.7449506 166.640396,32.3825812 L166.640396,32.3825812 C166.640396,35.0202117 164.502174,37.1584338 161.864543,37.1584338 L160.644314,37.1584338 C158.006683,37.1584338 155.868461,35.0202117 155.868461,32.3825812 L155.868461,32.3825812 C155.868461,29.7449506 153.730239,27.6067285 151.092608,27.6067285 L146.669737,27.6067285 C141.589423,27.6067285 137.471014,31.7251373 137.471014,36.805452 L137.471014,37.5132588 C137.471014,42.9844844 133.035709,47.4197891 127.564484,47.4197891 L121.614483,47.4197891 C118.780888,47.4197891 116.483805,45.1227065 116.483805,42.2891115 L116.483805,42.2891115 C116.483805,39.4555164 114.186722,37.1584338 111.353127,37.1584338 L102.470521,37.1584338 C99.636926,37.1584338 97.3398434,39.4555164 97.3398434,42.2891115 L97.3398434,42.2891115 C97.3398434,45.1227065 95.0427608,47.4197891 92.2091658,47.4197891 L91.9243842,47.4197891 C88.9467426,47.4197891 86.5328871,49.8336446 86.5328871,52.8112862 L86.5328871,52.8112862 C86.5328871,55.7889278 88.9467426,58.2027833 91.9243842,58.2027833 L93.4634953,58.2027833 C95.6043432,58.2027833 97.3398434,59.9382835 97.3398434,62.0791314 L97.3398434,62.0791315 C97.3398434,64.2199794 95.6043432,65.9554796 93.4634953,65.9554796 L91.9363653,65.9554796 C88.9521067,65.9554796 86.5328871,68.3746992 86.5328871,71.3589578 L86.5328871,72.5487736 C86.5328871,75.4765334 84.1594689,77.8499516 81.2317091,77.8499516 L80.1469584,77.8499516 C77.8182899,77.8499516 75.9305311,79.7377104 75.9305311,82.0663789 L75.9305311,82.0663789 C75.9305311,84.3950473 74.0427723,86.2828061 71.7141039,86.2828061 L70.9270375,86.2828061 C68.2013501,86.2828061 65.991744,88.4924122 65.991744,91.2180996 L65.991744,91.8208412 C65.991744,94.2136435 64.0519945,96.153393 61.6591922,96.153393 L61.6591922,96.153393 C59.2663899,96.153393 57.3266404,98.0931425 57.3266404,100.485945 L57.3266404,100.969797 C57.3266404,103.629823 55.1702629,105.786201 52.5102364,105.786201 L52.425447,105.786201 C49.7185926,105.786201 47.5242536,107.98054 47.5242536,110.687394 L47.5242536,122.916416 C47.5242536,125.251193 45.6315433,127.143903 43.2967669,127.143903 L43.2967669,127.143903 C40.9619905,127.143903 39.0692802,129.036613 39.0692802,131.37139 L39.0692802,138.022746 C39.0692802,143.210459 34.8638076,147.415932 29.6760942,147.415932 L29.3138961,147.415932 C24.3262192,147.415932 20.2829081,151.459243 20.2829081,156.44692 L20.2829081,160.163827 C20.2829081,163.098713 17.9037131,165.477908 14.9688274,165.477908 L14.9688274,165.477908 C12.0339417,165.477908 9.65474669,167.857103 9.65474669,170.791989 L9.65474669,198.098769 C9.65474669,200.602533 7.62504497,202.632235 5.12128102,202.632235 L5.12128102,202.632235 C2.61751706,202.632235 0.587815341,204.661937 0.587815341,207.165701 L0.587815341,208.371184 C0.587815341,211.540718 3.15723033,214.110133 6.32676434,214.110133 L18.8792759,214.110133 C24.4411031,214.110133 28.9498549,209.601381 28.9498549,204.039554 L28.9498549,203.256174 C28.9498549,198.126996 33.1078757,193.968975 38.2370543,193.968975 L43.7299296,193.968975 C45.8254769,193.968975 47.5242536,192.270198 47.5242536,190.174651 L47.5242536,190.174651 C47.5242536,188.079104 49.2230303,186.380327 51.3185776,186.380327 L64.3171539,186.380327 C66.4127012,186.380327 68.1114779,188.079104 68.1114779,190.174651 L68.1114779,190.174651 C68.1114779,192.270198 69.8102546,193.968975 71.9058019,193.968975 L74.1112465,193.968975 C77.4248271,193.968975 80.111015,196.655163 80.111015,199.968744 L80.111015,229.654234 C80.111015,231.427585 81.5486,232.86517 83.3219511,232.86517 L83.3219511,232.86517 C85.0953021,232.86517 86.5328871,234.302755 86.5328871,236.076106 L86.5328871,238.118424 C86.5328871,241.019715 88.8848488,243.371677 91.7861406,243.371677 L94.7629845,243.371677 C97.5573866,243.371677 99.822697,245.636987 99.822697,248.431389 L99.822697,248.43139 C99.822697,251.225792 102.088007,253.491102 104.88241,253.491102 L129.716474,253.491102 C132.510877,253.491102 134.776187,251.225792 134.776187,248.43139 L134.776187,248.43139 C134.776187,245.636987 137.041497,243.371677 139.8359,243.371677 L153.004055,243.371677 C155.798458,243.371677 158.063768,245.636987 158.063768,248.43139 L158.063768,248.43139 C158.063768,251.225792 160.329078,253.491102 163.123481,253.491102 L165.363947,253.491102 C169.395725,253.491102 172.664127,250.2227 172.664127,246.190923 L172.664127,241.094345 C172.664127,237.837263 175.304513,235.196877 178.561595,235.196877 L178.770804,235.196877 C181.912342,235.196877 184.459063,232.650156 184.459063,229.508618 L184.459063,228.65796 C184.459063,225.986226 186.624931,223.820358 189.296664,223.820358 L189.296664,223.820358 C191.968398,223.820358 194.134266,221.65449 194.134266,218.982757 L194.134266,203.222996 C194.134266,198.112141 198.277432,193.968975 203.388287,193.968975 L207.708858,193.968975 C210.433527,193.968975 212.642308,191.760194 212.642308,189.035525 L212.642308,189.035525 C212.642308,186.310855 214.851089,184.102074 217.575759,184.102074 L218.741612,184.102074 C222.110165,184.102074 224.840916,186.832825 224.840916,190.201378 L224.840916,201.447949 C224.840916,203.969019 226.884647,206.01275 229.405717,206.01275 L229.921827,206.01275 C232.157857,206.01275 233.970518,207.825411 233.970518,210.061442 L233.970518,210.061442 C233.970518,212.297472 235.783179,214.110133 238.019209,214.110133 L239.37123,214.110133 C242.052635,214.110133 244.226343,216.283841 244.226343,218.965245 L244.226343,219.441725 C244.226343,221.859977 246.186724,223.820358 248.604976,223.820358 L248.604976,223.820358 C251.023228,223.820358 252.983609,225.780739 252.983609,228.198991 L252.983609,240.416031 C252.983609,243.248608 255.279866,245.544865 258.112443,245.544865 L258.112443,245.544865 C260.945021,245.544865 263.241278,247.841122 263.241278,250.6737 L263.241278,254.309504 C263.241278,259.15008 267.165341,263.074143 272.005917,263.074143 L275.06202,263.074143 C279.902596,263.074143 283.826659,259.15008 283.826659,254.309504 L283.826659,250.471864 C283.826659,247.750758 281.620766,245.544865 278.89966,245.544865 L278.89966,245.544865 C276.178554,245.544865 273.972661,243.338972 273.972661,240.617866 L273.972661,236.593137 C273.972661,234.534238 275.641729,232.86517 277.700628,232.86517 L277.700628,232.86517 C279.759527,232.86517 281.428595,231.196102 281.428595,229.137203 L281.428595,220.149531 C281.428595,216.814064 284.132526,214.110133 287.467993,214.110133 L287.768442,214.110133 C290.937976,214.110133 293.507391,211.540718 293.507391,208.371184 L293.507391,207.577667 C293.507391,204.84638 295.721536,202.632235 298.452823,202.632235 L298.452823,202.632235 C301.184109,202.632235 303.398254,200.41809 303.398254,197.686804 L303.398254,181.468075 C303.398254,178.653312 305.680069,176.371497 308.494832,176.371497 L308.494832,176.371497 C311.309594,176.371497 313.591409,178.653312 313.591409,181.468074 L313.591409,185.170236 C313.591409,190.029645 317.530739,193.968975 322.390148,193.968975 L346.488758,193.968975 C349.213427,193.968975 351.422208,191.760194 351.422208,189.035525 L351.422208,189.035525 C351.422208,186.310855 353.630989,184.102074 356.355659,184.102074 L357.362993,184.102074 C360.643997,184.102074 363.303777,186.761854 363.303777,190.042858 L363.303777,193.367154 C363.303777,198.484117 367.451895,202.632235 372.568858,202.632235 L372.717239,202.632235 C377.916151,202.632235 382.130701,198.417685 382.130701,193.218773 L382.130701,181.592494 C382.130701,178.709017 379.793181,176.371497 376.909704,176.371497 L376.909704,176.371497 C374.026227,176.371497 371.688707,174.033977 371.688707,171.1505 L371.688707,164.868715 C371.688707,159.416831 376.108332,154.997206 381.560216,154.997206 L387.310225,154.997206 C389.586467,154.997206 391.431725,156.842464 391.431725,159.118706 L391.431725,159.118706 C391.431725,161.394948 393.276983,163.240206 395.553225,163.240206 L403.124361,163.240206 C407.494114,163.240206 411.036498,159.697822 411.036498,155.328069 L411.036498,151.883962 C411.036498,149.416337 409.036093,147.415932 406.568467,147.415932 L406.568467,147.415932 C404.100842,147.415932 402.100437,145.415527 402.100437,142.947902 L402.100437,121.354264 C402.100437,118.886639 404.100842,116.886234 406.568467,116.886234 L406.568467,116.886234 C409.036093,116.886234 411.036498,114.885829 411.036498,112.418204 L411.036498,110.254232 C411.036498,107.786606 409.036093,105.786201 406.568467,105.786201 L385.76927,105.786201 C382.704081,105.786201 380.219254,108.271028 380.219254,111.336218 L380.219254,111.336218 C380.219254,114.401407 377.734427,116.886234 374.669237,116.886234 L361.788629,116.886234 C356.063413,116.886234 351.422208,112.245029 351.422208,106.519814 L351.422208,106.519813 C351.422208,100.794598 346.781003,96.153393 341.055788,96.153393 L326.777075,96.153393 C324.051388,96.153393 321.841782,93.9437869 321.841782,91.2180996 L321.841782,90.4079926 C321.841782,88.129715 319.994873,86.2828061 317.716596,86.2828061 L317.716596,86.2828061 C315.438318,86.2828061 313.591409,84.4358972 313.591409,82.1576196 L313.591409,79.6452741 C313.591409,77.3669965 315.438318,75.5200876 317.716596,75.5200876 L317.716596,75.5200876 C319.994873,75.5200876 321.841782,73.6731787 321.841782,71.3949011 L321.841782,62.8026058 C321.841782,60.262194 323.901193,58.2027833 326.441605,58.2027833 L326.441605,58.2027833 C328.982016,58.2027833 331.041427,56.1433726 331.041427,53.6029608 Z" id="Oval" stroke="#EEEFF2" stroke-width="2"></path>
                <path d="M126.801632,48.0499878 L126.801632,59.8420138 C126.801632,62.4720678 124.669552,64.6041478 122.039498,64.6041478 L122.039498,64.6041478 C119.409444,64.6041478 117.277364,66.7362278 117.277364,69.3662818 L117.277364,79.7472111 C117.277364,82.6024622 114.962726,84.9171006 112.107475,84.9171006 L111.805087,84.9171006 C109.11684,84.9171006 106.937585,87.0963556 106.937585,89.7846028 L106.937585,89.7846028 C106.937585,92.4728501 109.11684,94.6521051 111.805087,94.6521051 L116.201863,94.6521051 C121.318382,94.6521051 125.46614,98.7998634 125.46614,103.916383 L125.46614,124.71939 C125.46614,129.835909 121.318382,133.983668 116.201863,133.983668 L116.201863,133.983668 C111.085343,133.983668 106.937585,138.131426 106.937585,143.247945 L106.937585,188.321856 C106.937585,194.949273 112.310168,200.321856 118.937585,200.321856 L124.468793,200.321856 C134.151011,200.321856 142,208.170845 142,217.853063 L142,242.495828" id="Combined-Shape-Copy" stroke="#E052A0" stroke-width="4"></path>
            </g>
        </g>
    </g>
</svg>