<?xml version="1.0" encoding="UTF-8"?>
<svg width="509px" height="338px" viewBox="0 0 509 338" version="1.1" xmlns="http://www.w3.org/2000/svg" xmlns:xlink="http://www.w3.org/1999/xlink">
    <!-- Generator: Sketch 48.2 (47327) - http://www.bohemiancoding.com/sketch -->
    <title>Artboard</title>
    <desc>Created with Sketch.</desc>
    <defs></defs>
    <g id="Page-6" stroke="none" stroke-width="1" fill="none" fill-rule="evenodd">
        <g id="Artboard">
            <g id="Group" transform="translate(43.000000, 28.000000)">
                <polygon id="Oval" stroke="#979797" fill="#537AE0" points="331.041427 58.2027833 331.041427 47.4197891 321.841782 47.4197891 321.841782 37.1584338 313.591409 37.1584338 313.591409 29.5605702 300.29054 29.5605702 300.29054 19.524091 263.241278 19.524091 263.241278 10.3336621 244.226343 10.3336621 244.226343 0.160782638 224.840916 0.160782638 224.840916 8.21392821 217.165636 8.21392821 217.165636 17.3103515 224.840916 17.3103515 224.840916 27.6067285 166.640396 27.6067285 166.640396 37.1584338 155.868461 37.1584338 155.868461 27.6067285 137.471014 27.6067285 137.471014 47.4197891 116.483805 47.4197891 116.483805 37.1584338 97.3398434 37.1584338 97.3398434 47.4197891 86.5328871 47.4197891 86.5328871 58.2027833 97.3398434 58.2027833 97.3398434 65.9554796 86.5328871 65.9554796 86.5328871 77.8499516 75.9305311 77.8499516 75.9305311 86.2828061 65.991744 86.2828061 65.991744 96.153393 57.3266404 96.153393 57.3266404 105.786201 47.5242536 105.786201 47.5242536 127.143903 39.0692802 127.143903 39.0692802 147.415932 18.9770063 147.415932 20.2829081 165.477908 9.65474669 165.477908 9.65474669 202.632235 0.587815341 202.632235 0.587815341 214.110133 28.9498549 214.110133 28.9498549 193.968975 47.5242536 193.968975 47.5242536 186.380327 68.1114779 186.380327 68.1114779 193.968975 80.111015 193.968975 80.111015 232.86517 86.5328871 232.86517 86.5328871 243.371677 99.822697 243.371677 99.822697 253.491102 134.776187 253.491102 134.776187 243.371677 158.063768 243.371677 158.063768 253.491102 172.664127 253.491102 172.664127 235.196877 184.459063 235.196877 184.459063 223.820358 194.134266 223.820358 194.134266 193.968975 212.642308 193.968975 212.642308 184.102074 224.840916 184.102074 224.840916 206.01275 233.970518 206.01275 233.970518 214.110133 244.226343 214.110133 244.226343 223.820358 252.983609 223.820358 252.983609 245.544865 263.241278 245.544865 263.241278 263.074143 283.826659 263.074143 283.826659 245.544865 273.972661 245.544865 273.972661 232.86517 281.428595 232.86517 281.428595 214.110133 293.507391 214.110133 293.507391 202.632235 303.398254 202.632235 303.398254 176.371497 313.591409 176.371497 313.591409 193.968975 351.422208 193.968975 351.422208 184.102074 363.303777 184.102074 363.303777 202.632235 382.130701 202.632235 382.130701 176.371497 371.688707 176.371497 371.688707 154.997206 391.431725 154.997206 391.431725 163.240206 411.036498 163.240206 411.036498 147.415932 402.100437 147.415932 402.100437 116.886234 411.036498 116.886234 411.036498 105.786201 402.100437 105.786201 380.219254 105.786201 380.219254 116.886234 351.422208 116.886234 351.422208 96.153393 321.841782 96.153393 321.841782 86.2828061 313.591409 86.2828061 313.591409 75.5200876 321.841782 75.5200876 321.841782 58.2027833"></polygon>
                <path d="M80.111015,202.326028 L80.111015,193.968975 L68.1114779,193.968975 L68.1114779,186.380327 L47.5242536,186.380327 L47.5242536,193.968975 L28.9498549,193.968975 L28.9498549,214.110133 L0.587815341,214.110133 L0.587815341,202.632235 L9.65474669,202.632235 L9.65474669,165.477908 L20.2829081,165.477908 L18.9770063,147.415932 L39.0692802,147.415932 L39.0692802,127.143903 L47.5242536,127.143903 L47.5242536,105.786201 L57.3266404,105.786201 L57.3266404,96.153393 L65.991744,96.153393 L65.991744,86.2828061 L75.9305311,86.2828061 L75.9305311,77.8499516 L86.5328871,77.8499516 L86.5328871,65.9554796 L97.3398434,65.9554796 L97.3398434,58.2027833 L86.5328871,58.2027833 L86.5328871,47.4197891 L97.3398434,47.4197891 L97.3398434,37.1584338 L116.483805,37.1584338 L116.483805,47.4197891 L126.801632,47.4197891 L126.801632,66.60832 L117.277364,66.60832 L117.277364,86.9212728 L106.937585,86.9212728 L106.937585,96.6562773 L125.46614,96.6562773 L126.801632,135.98784 L106.937585,135.98784 L106.937585,202.326028 L80.111015,202.326028 Z" id="Combined-Shape" fill="#E052A0"></path>
            </g>
        </g>
    </g>
</svg>